<svg id="Layer_1" data-name="Layer 1" xmlns="http://www.w3.org/2000/svg" viewBox="0 0 1196 416"><defs><style>.cls-1{fill:#fff;}</style></defs><title>Image convert 2</title><path class="cls-1" d="M164,179.72c-11.13,15.57-26.51,23.46-45.7,23.46s-35.18-6.5-47.24-19.32-18.23-29.4-18.23-49.22c0-20.54,6.23-37.8,18.51-51.29s28-20.31,47-20.31c17.34,0,31.53,6.72,42.18,20l1.06,1.32L184.7,66.71l-1.07-1.38a69.83,69.83,0,0,0-28.07-21.4,92.06,92.06,0,0,0-36.46-7.27c-28,0-51.22,9.3-69,27.63s-26.71,41.93-26.71,70.09a95.94,95.94,0,0,0,12.45,47.06,92.07,92.07,0,0,0,82,48.12,92,92,0,0,0,40.48-8.83c12.07-5.87,21.88-13.75,29.14-23.43l1-1.39-23.42-17.63Z"/><path class="cls-1" d="M310.28,203.64V138.89c-.55-12.85-5.52-23-14.79-30.32s-21.76-10.81-37.37-10.81h0c-19.17.36-35.65,6.5-49,18.26l-1.36,1.2,16.11,16.69,1.23-1c6.49-5.14,12.12-8.69,16.75-10.56a43.57,43.57,0,0,1,16.29-2.81c8.2,0,14.89,2.21,19.88,6.57s7.43,10.35,7.43,17.93v2.59H270.09c-21.26,0-38,3.65-49.77,10.83-12.06,7.34-18.17,18.33-18.17,32.66,0,11.34,4.1,20.61,12.21,27.55S232.89,228,245.65,228c9.38,0,17.73-1.68,24.81-5a45.22,45.22,0,0,0,16.27-13.52c.1,5,.34,9.6.73,13.9l.15,1.57h23.88l-.19-1.9C310.62,216.32,310.28,209.78,310.28,203.64Zm-24.85-36.71v4.86c-.16,11.19-3.2,19.82-9,25.67s-13.76,8.77-23.61,8.77c-16.3,0-24.23-5.84-24.23-17.86,0-7.14,3.75-12.33,11.46-15.87,8-3.7,19.53-5.57,34.16-5.57Z"/><path class="cls-1" d="M391,203.18c-6.49,0-10.57-1.77-12.46-5.43-2.07-4-3.12-9.77-3.12-17.27V124.14h32.86V100.82H375.46V67H349.09v33.87H322.6v23.32h26.49v62.71c0,11.06,1.17,19,3.58,24.26a27.23,27.23,0,0,0,11.7,12.51c5.22,2.92,12.65,4.41,22.14,4.41h0c9.87-.35,17-1.74,21.65-4.27l.91-.49V198.33l-2.61,1.53C402.7,202.06,397.51,203.18,391,203.18Z"/><path class="cls-1" d="M499.52,97.76a52.57,52.57,0,0,0-24.88,5.94A37.54,37.54,0,0,0,461,115.54V29H434.63V225H461V160.13c.16-11.78,3-21.09,8.48-27.7s13.26-9.81,23.37-9.81c8.22,0,14.43,2.47,19,7.57s6.82,12.15,6.82,21V225h26.37V144.57c0-14.15-4.15-25.61-12.32-34.06S513.35,97.76,499.52,97.76Z"/><path class="cls-1" d="M626,192.51,591.1,100.82H560.86L611.74,224l-6.88,18.22c-2.31,6.22-5,11.05-8,14.32-2.8,3.09-7.55,4.66-14.14,4.66a39.13,39.13,0,0,1-13.14-2.44l-2-.72-3.29,24.06,1.23.51c5.44,2.28,12.53,3.43,21.06,3.43,10.18,0,18.67-2.55,25.22-7.6s12.48-14.63,17.87-29.14l58-148.52H659.24Z"/><path class="cls-1" d="M861.57,53.29c-14.28-8-31.35-12-50.74-12H744.91V225H807c18.55,0,35.62-4,50.74-11.92A88.53,88.53,0,0,0,893.28,180,89.43,89.43,0,0,0,906,133.12a96.74,96.74,0,0,0-11.41-46.67A83.05,83.05,0,0,0,861.57,53.29ZM772.84,67.63H809c20.31,0,36.83,6,49.09,17.83s18.44,27.88,18.44,47.66c0,13.69-3.29,25.53-9.79,35.19a63.89,63.89,0,0,1-26.51,22.43,87.19,87.19,0,0,1-37.1,7.87H772.84Z"/><path class="cls-1" d="M991.85,97.76h0c-18.57.36-34.36,6.87-46.91,19.36s-19,27.91-19,45.82c.37,18.2,7,33.77,19.61,46.25S973.8,228,991.88,228c18.38-.34,34.1-6.76,46.74-19.07s19.12-27.83,19.12-46.07c-.17-18-6.67-33.55-19.34-46.15S1010.07,97.76,991.85,97.76Zm38,65.12c-.16,12.06-3.68,21.91-10.48,29.27s-16,11-27.48,11c-11.35-.16-20.61-4-27.54-11.29s-10.47-17.11-10.47-29c0-11.56,3.44-21.29,10.23-28.9s15.84-11.39,27.47-11.39c11.84.17,21.27,4,28,11.29S1029.84,151,1029.84,162.88Z"/><rect class="cls-1" x="1084.85" y="29.02" width="26.37" height="195.96"/><rect class="cls-1" x="1146.22" y="29.02" width="26.37" height="195.96"/><path class="cls-1" d="M280.29,383l.32-42.2h-.24L265.5,383h-9.7l-14.46-42.2h-.24l.32,42.2h-13V323.35h19.66l13,38.24h.32l12.46-38.24h20V383Z"/><path class="cls-1" d="M346,383V323.35h38.46v12.12H359.32v11.29h23.76V358.3H359.32v12.38h26.59V383Z"/><path class="cls-1" d="M488.86,353a30.5,30.5,0,0,1-2.78,13.51,27,27,0,0,1-7.36,9.35,30.07,30.07,0,0,1-10.3,5.4A40.27,40.27,0,0,1,456.78,383H435.45V323.35h20.68a49.35,49.35,0,0,1,12,1.47,29.44,29.44,0,0,1,10.5,4.88,25,25,0,0,1,7.44,9.14A31.9,31.9,0,0,1,488.86,353Zm-14.38,0a19.62,19.62,0,0,0-1.58-8.39,14,14,0,0,0-4.2-5.3,16.42,16.42,0,0,0-6-2.82,27.89,27.89,0,0,0-6.91-.85h-6.87v34.88h6.55a28.53,28.53,0,0,0,7.15-.89,16.7,16.7,0,0,0,6.06-2.9,14.31,14.31,0,0,0,4.2-5.4A19.59,19.59,0,0,0,474.48,353Z"/><path class="cls-1" d="M538.4,383V323.35h13.9V383Z"/><path class="cls-1" d="M643.29,383l-4.44-11.71H616.71L612.5,383h-15l24-59.63h13.42L658.65,383Zm-15.35-43.71-7.27,20.46h14.38Z"/><path class="cls-1" d="M797.89,383l-21.26-27.46h-.16V383H763V323.35h13.49V347.6h.24l20.45-24.25h17.29l-24.64,27.46L815.91,383Z"/><path class="cls-1" d="M860.84,383V323.35h13.9V383Z"/><path class="cls-1" d="M951.43,335.64V383H937.61V335.64H921.45V323.35h46.14v12.29Z"/></svg>